<?xml version="1.0" standalone="no"?>
<!DOCTYPE svg PUBLIC "-//W3C//DTD SVG 20010904//EN"
 "http://www.w3.org/TR/2001/REC-SVG-20010904/DTD/svg10.dtd">
<svg version="1.0" xmlns="http://www.w3.org/2000/svg"
 width="115.000000pt" height="115.000000pt" viewBox="0 0 115.000000 115.000000"
 preserveAspectRatio="xMidYMid meet">
<metadata>
Created by potrace 1.11, written by Peter Selinger 2001-2013
</metadata>
<g transform="translate(0.000000,115.000000) scale(0.100000,-0.100000)"
fill="#000000" stroke="none">
<path d="M445 1134 c-91 -22 -194 -78 -263 -143 -34 -32 -62 -63 -62 -69 0 -7
-3 -12 -8 -12 -4 0 -22 -26 -39 -57 -103 -188 -92 -423 29 -604 77 -114 206
-200 350 -234 90 -20 248 -12 302 17 12 6 23 11 26 10 3 -1 33 12 68 30 134
66 249 219 287 379 18 82 14 225 -10 289 -30 80 -58 140 -67 140 -4 0 -8 6 -8
13 0 15 -104 127 -118 127 -5 0 -12 6 -15 13 -8 21 -152 89 -217 102 -80 17
-184 16 -255 -1z"/>
</g>
</svg>
